<svg xmlns="http://www.w3.org/2000/svg" width="900" height="420" viewBox="0 0 900 420" role="img">
<title>Luics415 · Contacto</title>
<defs>
<linearGradient id="bg" x1="0" y1="0" x2="1" y2="1"><stop stop-color="#06385C"/><stop offset=".56" stop-color="#020611"/><stop offset="1" stop-color="#16031F"/></linearGradient>
<linearGradient id="signal" x1="0" y1="0" x2="1" y2="0"><stop stop-color="#00E7FF"/><stop offset="1" stop-color="#FF23C8"/></linearGradient>
<radialGradient id="glow-cyan"><stop stop-color="#00E7FF" stop-opacity=".31"/><stop offset="1" stop-color="#00E7FF" stop-opacity="0"/></radialGradient>
<radialGradient id="glow-magenta"><stop stop-color="#FF23C8" stop-opacity=".27"/><stop offset="1" stop-color="#FF23C8" stop-opacity="0"/></radialGradient>
<radialGradient id="glow-wine"><stop stop-color="#C41A68" stop-opacity=".30"/><stop offset="1" stop-color="#C41A68" stop-opacity="0"/></radialGradient>
<pattern id="grid" width="60" height="60" patternUnits="userSpaceOnUse"><path d="M60 0H0V60" fill="none" stroke="#215377" stroke-width="1"/></pattern>
</defs>
<rect width="900" height="420" fill="url(#bg)"/>
<ellipse cx="110" cy="90" rx="320" ry="250" fill="url(#glow-cyan)"/>
<ellipse cx="800" cy="90" rx="280" ry="240" fill="url(#glow-magenta)"/>
<ellipse cx="790" cy="380" rx="340" ry="280" fill="url(#glow-wine)"/>
<rect width="900" height="420" fill="url(#grid)" opacity=".82"/>
<rect x="18" y="18" width="864" height="384" rx="26" fill="none" stroke="#4A9BC7" stroke-width="2"/>
<text x="60" y="72" fill="#00E7FF" font-family="ui-monospace,Consolas,monospace" font-size="15" font-weight="600" text-anchor="start">OPEN CHANNEL</text>
<text x="60" y="120" fill="#FAFDFF" font-family="Segoe UI,Arial,sans-serif" font-size="42" font-weight="800" text-anchor="start">Código con rumbo, canales abiertos.</text>
<text x="60" y="156" fill="#D2E6F6" font-family="Segoe UI,Arial,sans-serif" font-size="19" font-weight="400" text-anchor="start">La lógica es el ancla; cada proyecto encuentra su dirección.</text>
<rect x="60" y="202" width="240" height="126" rx="22" fill="#052D42" stroke="#00E7FF" stroke-opacity=".90"/>
<rect x="80" y="230" width="54" height="54" rx="16" fill="#0D2A49" stroke="#00E7FF"/>
<svg x="92" y="241" width="30" height="30" viewBox="0 0 16 16" fill="#FFFFFF">
  <path d="M8 0C3.58 0 0 3.58 0 8c0 3.54 2.29 6.53 5.47 7.59.4.07.55-.17.55-.38 0-.19-.01-.82-.01-1.49-2.01.37-2.53-.49-2.69-.94-.09-.23-.48-.94-.82-1.13-.28-.15-.68-.52-.01-.53.63-.01 1.08.58 1.23.82.72 1.21 1.87.87 2.33.66.07-.52.28-.87.51-1.07-1.78-.2-3.64-.89-3.64-3.95 0-.87.31-1.59.82-2.15-.08-.2-.36-1.02.08-2.12 0 0 .67-.21 2.2.82.64-.18 1.32-.27 2-.27s1.36.09 2 .27c1.53-1.04 2.2-.82 2.2-.82.44 1.1.16 1.92.08 2.12.51.56.82 1.27.82 2.15 0 3.07-1.87 3.75-3.65 3.95.29.25.54.73.54 1.48 0 1.07-.01 1.93-.01 2.2 0 .21.15.46.55.38A8.01 8.01 0 0 0 16 8c0-4.42-3.58-8-8-8"/>
</svg>
<text x="150" y="248" fill="#00E7FF" font-family="Segoe UI,Arial,sans-serif" font-size="16" font-weight="700" text-anchor="start">GitHub</text>
<text x="150" y="277" fill="#E2F2FF" font-family="Segoe UI,Arial,sans-serif" font-size="13" font-weight="500" text-anchor="start">github.com/Luics415</text>
<rect x="330" y="202" width="240" height="126" rx="22" fill="#0B2F37" stroke="#35F59A" stroke-opacity=".90"/>
<rect x="350" y="230" width="54" height="54" rx="16" fill="#0D2A49" stroke="#35F59A"/>
<svg x="362" y="241" width="30" height="30" viewBox="0 0 16 16" fill="#25D366">
  <path d="M13.601 2.326A7.85 7.85 0 0 0 7.994 0C3.627 0 .068 3.558.064 7.926c0 1.399.366 2.76 1.057 3.965L0 16l4.204-1.102a7.9 7.9 0 0 0 3.79.965h.004c4.368 0 7.926-3.558 7.93-7.93A7.9 7.9 0 0 0 13.6 2.326zM7.994 14.521a6.6 6.6 0 0 1-3.356-.92l-.24-.144-2.494.654.666-2.433-.156-.251a6.56 6.56 0 0 1-1.007-3.505c0-3.626 2.957-6.584 6.591-6.584a6.56 6.56 0 0 1 4.66 1.931 6.56 6.56 0 0 1 1.928 4.66c-.004 3.639-2.961 6.592-6.592 6.592m3.615-4.934c-.197-.099-1.17-.578-1.353-.646-.182-.065-.315-.099-.445.099-.133.197-.513.646-.627.775-.114.133-.232.148-.43.05-.197-.1-.836-.308-1.592-.985-.59-.525-.985-1.175-1.103-1.372-.114-.198-.011-.304.088-.403.087-.088.197-.232.296-.346.1-.114.133-.198.198-.33.065-.134.034-.248-.015-.347-.05-.099-.445-1.076-.612-1.47-.16-.389-.323-.335-.445-.34-.114-.007-.247-.007-.38-.007a.73.73 0 0 0-.529.247c-.182.198-.691.677-.691 1.654s.71 1.916.81 2.049c.098.133 1.394 2.132 3.383 2.992.47.205.84.326 1.129.418.475.152.904.129 1.246.08.38-.058 1.171-.48 1.338-.943.164-.464.164-.86.114-.943-.049-.084-.182-.133-.38-.232"/>
</svg>
<text x="420" y="248" fill="#35F59A" font-family="Segoe UI,Arial,sans-serif" font-size="16" font-weight="700" text-anchor="start">WhatsApp</text>
<text x="420" y="277" fill="#E2F2FF" font-family="Segoe UI,Arial,sans-serif" font-size="13" font-weight="500" text-anchor="start">(55) 6152 5238</text>
<rect x="600" y="202" width="240" height="126" rx="22" fill="#21173C" stroke="#FF23C8" stroke-opacity=".90"/>
<rect x="620" y="230" width="54" height="54" rx="16" fill="#0D2A49" stroke="#FF23C8"/>
<svg x="632" y="241" width="30" height="30" viewBox="0 0 16 16" fill="#FF23C8">
  <path d="M8 16s6-5.686 6-10A6 6 0 0 0 2 6c0 4.314 6 10 6 10m0-7a3 3 0 1 1 0-6 3 3 0 0 1 0 6"/>
</svg>
<text x="690" y="248" fill="#FF23C8" font-family="Segoe UI,Arial,sans-serif" font-size="16" font-weight="700" text-anchor="start">Ubicación</text>
<text x="690" y="277" fill="#E2F2FF" font-family="Segoe UI,Arial,sans-serif" font-size="13" font-weight="500" text-anchor="start">Atizapán, México</text>
<line x1="78" y1="351" x2="822" y2="351" stroke="#356080" stroke-width="2"/>
<circle cx="450" cy="351" r="7" fill="#00E7FF" stroke="#FAFDFF"/>
<text x="46" y="386" fill="#D2E6F6" font-family="ui-monospace,Consolas,monospace" font-size="13" font-weight="400" text-anchor="start">LUICS415 // SOCIAL</text>
</svg>
