<svg xmlns="http://www.w3.org/2000/svg" width="1000" height="355" viewBox="0 0 1000 355"><rect x="1" y="1" width="998" height="353" rx="26" fill="#08111F" stroke="#314665"/><text x="48" y="43" fill="#F3F7FF" font-family="Segoe UI,Arial,sans-serif" font-size="21" font-weight="700">STACK // REPOSITORY SIGNAL</text><text x="48" y="69" fill="#A7B7D0" font-family="Segoe UI,Arial,sans-serif" font-size="13">6 tecnologías visibles · carrusel animado a las siguientes 6.</text><g transform="translate(48 96)"><rect width="274" height="96" rx="18" fill="#101C31" stroke="#A6D0F2" stroke-width="2"/><rect x="15" y="15" width="12" height="66" rx="6" fill="#A6D0F2"/><text x="46" y="42" fill="#F3F7FF" font-family="Segoe UI,Arial,sans-serif" font-size="18" font-weight="700">JavaScript</text><text x="46" y="67" fill="#A7B7D0" font-family="Segoe UI,Arial,sans-serif" font-size="11">Repository signal</text></g><g transform="translate(349 96)"><rect width="274" height="96" rx="18" fill="#101C31" stroke="#A84370" stroke-width="2"/><rect x="15" y="15" width="12" height="66" rx="6" fill="#A84370"/><text x="46" y="42" fill="#F3F7FF" font-family="Segoe UI,Arial,sans-serif" font-size="18" font-weight="700">TypeScript</text><text x="46" y="67" fill="#A7B7D0" font-family="Segoe UI,Arial,sans-serif" font-size="11">Repository signal</text></g><g transform="translate(650 96)"><rect width="274" height="96" rx="18" fill="#101C31" stroke="#A6D0F2" stroke-width="2"/><rect x="15" y="15" width="12" height="66" rx="6" fill="#A6D0F2"/><text x="46" y="42" fill="#F3F7FF" font-family="Segoe UI,Arial,sans-serif" font-size="18" font-weight="700">C#</text><text x="46" y="67" fill="#A7B7D0" font-family="Segoe UI,Arial,sans-serif" font-size="11">Repository signal</text></g><g transform="translate(48 215)"><rect width="274" height="96" rx="18" fill="#101C31" stroke="#A84370" stroke-width="2"/><rect x="15" y="15" width="12" height="66" rx="6" fill="#A84370"/><text x="46" y="42" fill="#F3F7FF" font-family="Segoe UI,Arial,sans-serif" font-size="18" font-weight="700">Python</text><text x="46" y="67" fill="#A7B7D0" font-family="Segoe UI,Arial,sans-serif" font-size="11">Repository signal</text></g><g transform="translate(349 215)"><rect width="274" height="96" rx="18" fill="#101C31" stroke="#A6D0F2" stroke-width="2"/><rect x="15" y="15" width="12" height="66" rx="6" fill="#A6D0F2"/><text x="46" y="42" fill="#F3F7FF" font-family="Segoe UI,Arial,sans-serif" font-size="18" font-weight="700">PHP</text><text x="46" y="67" fill="#A7B7D0" font-family="Segoe UI,Arial,sans-serif" font-size="11">Repository signal</text></g><g transform="translate(650 215)"><rect width="274" height="96" rx="18" fill="#101C31" stroke="#A84370" stroke-width="2"/><rect x="15" y="15" width="12" height="66" rx="6" fill="#A84370"/><text x="46" y="42" fill="#F3F7FF" font-family="Segoe UI,Arial,sans-serif" font-size="18" font-weight="700">Kotlin</text><text x="46" y="67" fill="#A7B7D0" font-family="Segoe UI,Arial,sans-serif" font-size="11">Repository signal</text></g></svg>